<svg enable-background="new 0 0 100 100" version="1.1" xml:space="preserve" xmlns="http://www.w3.org/2000/svg" viewBox="2.5 3.5 95.02 92.82"> <switch>   <g>  
 <path fill='gray' d="m10.8 21.8v12.7c0.1 0 0.1 0 0.2-0.1 1.3-0.4 2.5-0.6 3.8-0.6 1.4 0 2.7 0.2 4 0.7v-12.7c3.3-1.5 5.6-4.8 5.6-8.7 0-5.3-4.3-9.6-9.6-9.6s-9.6 4.3-9.6 9.6c0.1 3.9 2.4 7.2 5.6 8.7z"></path>   
   <path  fill='gray' d="m25.2 78.1h-6.3v-14l-8-4.3v18.2h-6.3c-1.7 0-2.7 1.9-1.7 3.3l10.3 14.2c0.8 1.1 2.5 1.1 3.3 0l10.3-14.2c1-1.3 0-3.2-1.6-3.2z"></path>   
     <path fill='gray' d="m96.5 47.2c-1.8-5.8-5.7-10.6-11-13.4l-19-10.2c-3.3-1.8-7.5-0.5-9.3 2.8-1.2 2.2-1 4.7 0.1 6.7l-0.1-0.1c-3.4-1.8-7.5-0.5-9.3 2.8-1.2 2.2-1 4.7 0.1 6.7l-0.1-0.1c-3.4-1.8-7.5-0.5-9.3 2.8-1.2 2.2-1 4.7 0.1 6.7l-20.5-10.9c-1.6-0.9-3.5-1.1-5.3-0.5-1.8 0.5-3.2 1.7-4.1 3.3-1.8 3.3-0.5 7.5 2.8 9.3l39.8 21.3c0.4 0.2 0.5 0.5 0.5 0.9s-0.3 0.7-0.7 0.8l-9.4 2.9c-3.2 1-5.3 4.1-4.9 7.4 0.2 2 1.2 3.7 2.8 4.9s3.6 1.6 5.5 1.2l26.8-5.3c7.6-1.5 14-6.3 17.7-13.1l5.1-9.6c2.9-5.3 3.5-11.5 1.7-17.3z">
 </path>     </g></switch> </svg>