<?xml version="1.0" encoding="utf-8"?><svg version="1.1" id="Layer_1" xmlns="http://www.w3.org/2000/svg" xmlns:xlink="http://www.w3.org/1999/xlink" x="0px" y="0px" width="122.88px" height="120.666px" viewBox="0 0 122.88 120.666" enable-background="new 0 0 122.88 120.666" xml:space="preserve"><g><path fill="#D3D3D3" d="M26.942,46.192c0.04,0.035,0.079,0.072,0.117,0.11l21.135,19.64c0.753,0.7,1.013,1.731,0.766,2.661h0.002 c-1.81,6.775-3.228,14.056-2.693,20.8c0.492,6.213,2.675,12.026,7.847,16.608l18.362-18.362c0.959-0.959,2.461-1.043,3.515-0.253 l35.886,22.268L89.485,73.576c-0.668-1.079-0.477-2.447,0.385-3.307l-0.007-0.007l18.362-18.361 c-4.582-5.172-10.395-7.354-16.608-7.846c-6.744-0.535-14.025,0.884-20.801,2.692c-0.969,0.259-1.956-0.046-2.613-0.715 L47.102,26.391c-0.062-0.058-0.121-0.118-0.177-0.181L26.942,46.192L26.942,46.192z M1.19,40.442L40.432,1.2l0.01,0.01 c0.021-0.021,0.043-0.042,0.064-0.062C41.312,0.393,42.301,0,43.31,0c1.023,0,2.023,0.391,2.838,1.2l11.66,11.569 c0.775,0.769,1.133,1.822,1.133,2.831c0,0.988-0.36,2.042-1.018,2.78l-5.234,5.872l18.18,16.924 c6.854-1.752,14.174-3.038,21.168-2.484c7.783,0.617,15.087,3.478,20.822,10.377l0.015,0.018l0.003-0.003 c-0.007-0.013-0.015-0.028,0.007-0.007c0.156,0.149,0.071,0.056,0.198,0.183c0.259,0.259,0.485,0.509,0.674,0.746 c0.494,0.622,0.749,1.276,0.749,1.954c0,0.638-0.258,1.33-0.763,1.965c-0.127,0.159-0.297,0.352-0.508,0.57 c-0.048,0.057-0.099,0.112-0.152,0.166L95.174,72.568l27.276,43.958c0.544,0.843,0.591,1.957,0.029,2.866 c-0.778,1.261-2.432,1.651-3.691,0.873L74.782,92.96l-17.908,17.909l-0.005-0.005c-0.286,0.285-0.533,0.508-0.729,0.664 c-0.637,0.506-1.331,0.764-1.967,0.764c-0.679,0-1.332-0.255-1.954-0.749c-0.237-0.188-0.487-0.415-0.747-0.674 c-0.126-0.126-0.034-0.042-0.183-0.198c-0.017-0.018,0.016,0.006-0.008-0.014l0.005-0.006l-0.005-0.005 c-6.899-5.736-9.76-13.04-10.377-20.822c-0.551-6.951,0.716-14.225,2.452-21.041L25.128,51.844l-6.747,6.079 c-0.739,0.667-1.799,1.018-2.784,1.018c-1.013,0-2.082-0.362-2.837-1.123L1.19,46.158C0.405,45.366,0,44.335,0,43.301 C0,42.271,0.39,41.243,1.19,40.442L1.19,40.442z M112.875,49.085c0.015,0.016,0.009,0.007,0.003-0.003L112.875,49.085 L112.875,49.085z"/></g></svg>