<?xml version="1.0" encoding="iso-8859-1"?>
<!-- Uploaded to: SVG Repo, www.svgrepo.com, Generator: SVG Repo Mixer Tools -->
<svg fill="#D3D3D3" height="800px" width="800px" version="1.1" id="Layer_1" xmlns="http://www.w3.org/2000/svg" xmlns:xlink="http://www.w3.org/1999/xlink" 
	 viewBox="0 0 512 512" xml:space="preserve">
<g>
	<g>
		<path d="M481.134,264.377h-86.707c-2.802-17.655-7.642-33.718-14.435-49.235l57.056-56.964
			c12.026-12.034,12.017-31.583-0.026-43.635c-12.052-12.031-31.638-12.027-43.673,0.003l-48.314,48.32
			c-3.177-3.224-6.47-6.275-9.862-9.15c5.974-12.095,9.103-25.458,9.103-39.079c0-48.677-39.599-88.275-88.276-88.275
			s-88.276,39.6-88.276,88.277c0,13.615,3.129,26.983,9.108,39.082c-3.392,2.871-6.685,5.927-9.866,9.155l-48.311-48.315
			c-12.039-12.026-31.634-12.017-43.672,0.026c-12.047,12.047-12.056,31.638-0.022,43.672l57.047,56.881
			c-6.793,15.517-11.629,31.58-14.431,49.235H30.871C13.849,264.377,0,278.239,0,295.274c0,17.034,13.849,30.897,30.871,30.897
			h85.465c2.172,17.655,6.556,35.744,13.078,52.166l-54.457,54.535c-12.026,12.034-12.017,31.667,0.026,43.719
			c12.052,12.043,31.646,12.068,43.672,0.033l44.017-44.003c25.776,28.414,58.591,43.945,93.328,43.945
			c34.741,0,67.556-15.522,93.332-43.936l44.013,43.708c5.828,5.828,13.573,8.73,21.823,8.73c0.004,0,0.009,0,0.013,0
			c8.25,0,16.004-2.91,21.845-8.746c12.039-12.047,12.047-31.485,0.017-43.519l-54.457-54.542
			c6.526-16.418,10.909-34.434,13.082-52.089h85.466c17.022,0,30.866-13.862,30.866-30.897
			C512,278.239,498.155,264.377,481.134,264.377z M481.134,308.515H387.69c-4.595,0-8.418,3.688-8.798,8.265
			c-1.754,21.237-6.741,41.544-14.819,60.199c-1.44,3.323-0.703,7.232,1.858,9.792l58.625,58.645
			c5.151,5.151,5.142,13.247-0.017,18.406c-2.5,2.504-5.828,3.588-9.366,3.588h-0.004c-3.53,0-6.845-1.065-9.336-3.556
			l-50.767-50.614c-1.66-1.66-3.905-2.51-6.242-2.51c-0.159,0-0.319,0.043-0.478,0.051c-2.504,0.138-4.832,1.351-6.405,3.308
			c-23.207,28.892-53.724,44.816-85.94,44.816c-32.211,0-62.728-15.908-85.935-44.801c-1.573-1.957-3.901-3.149-6.405-3.287
			c-2.5-0.108-4.944,0.799-6.72,2.574l-50.767,50.768c-5.16,5.147-13.552,5.138-18.703-0.017
			c-5.164-5.164-5.173-13.556-0.026-18.707l58.625-58.625c2.56-2.56,3.297-6.427,1.858-9.75
			c-8.078-18.659-13.06-39.049-14.815-60.282c-0.379-4.578-4.203-8.265-8.797-8.265H30.871c-7.289,0-13.216-5.94-13.216-13.241
			s5.927-13.241,13.216-13.241h94.358c4.453,0,8.207-3.149,8.759-7.563c2.56-20.422,8.134-39.663,16.569-57.348
			c1.608-3.375,0.918-7.359-1.728-10.001l-61.384-61.363c-5.151-5.151-5.142-13.533,0.022-18.693
			c5.164-5.164,13.552-5.167,18.707-0.021l54.789,54.796c1.724,1.728,3.918,2.609,6.543,2.583c2.444-0.082,4.741-1.177,6.349-3.017
			c6.052-6.935,12.651-13.124,19.612-18.395c3.616-2.737,4.569-7.767,2.207-11.638c-6.733-11.034-10.293-23.737-10.293-36.733
			c0-38.94,31.681-70.621,70.621-70.621s70.621,31.681,70.621,70.621c0,13-3.556,25.703-10.289,36.733
			c-2.362,3.871-1.41,8.897,2.203,11.634c6.978,5.289,13.578,11.479,19.608,18.396c1.608,1.845,3.91,2.935,6.353,3.022
			c2.427,0.052,4.81-0.853,6.543-2.582l54.793-54.789c5.151-5.155,13.543-5.142,18.703,0.017c5.164,5.164,5.172,13.556,0.026,18.707
			l-61.388,61.383c-2.647,2.642-3.336,6.668-1.724,10.043c8.435,17.681,14.008,36.838,16.569,57.265
			c0.552,4.414,4.306,7.563,8.758,7.563h94.358c7.285,0,13.211,5.94,13.211,13.241S488.418,308.515,481.134,308.515z"/>
	</g>
</g>
</svg>