<svg xmlns="http://www.w3.org/2000/svg" version="1.0" preserveAspectRatio="xMidYMid meet" viewBox="16.56 12.57 199.91 220.87">
  <g transform="matrix(0.1, 0, 0, -0.1, 1.563518, 238.436493)" fill="#D3D3D3" stroke="none">
    <path d="M1680 2232 c-56 -27 -64 -42 -46 -83 6 -13 -4 -19 -46 -32 -213 -66 -282 -100 -354 -171 -71 -72 -108 -145 -108 -217 -1 -50 -3 -58 -28 -72 -41 -23 -86 -92 -99 -153 l-12 -54 -92 0 c-116 0 -125 -8 -125 -102 0 -76 6 -98 27 -98 8 0 -11 -28 -44 -65 -93 -104 -91 -93 -92 -578 -1 -370 1 -423 16 -454 9 -19 22 -37 30 -40 7 -3 13 -9 13 -15 0 -6 -107 -8 -285 -6 l-285 3 0 -22 0 -23 995 0 c888 0 996 2 1002 15 3 9 3 19 -1 22 -3 3 -98 5 -211 4 -125 -1 -205 1 -205 7 0 6 6 12 13 15 8 3 21 21 30 40 15 31 17 85 17 461 l0 427 -24 48 c-14 26 -47 73 -75 103 -47 51 -48 55 -30 66 16 10 19 24 19 86 0 93 -12 106 -96 106 l-59 0 -13 52 c-6 28 -24 70 -39 91 l-27 40 99 97 c55 53 115 116 134 139 l33 42 19 -30 c22 -37 28 -37 104 -8 42 16 61 29 63 43 4 25 -96 310 -115 330 -20 20 -40 17 -103 -14z m124 -155 c25 -73 46 -137 46 -143 0 -10 -80 -40 -84 -32 -2 5 -88 252 -93 269 -4 14 34 34 73 38 6 1 32 -59 58 -132z m-125 -59 c17 -53 20 -73 11 -76 -6 -2 -24 -18 -38 -36 -15 -17 -69 -74 -122 -126 -52 -52 -106 -112 -120 -132 -25 -37 -40 -48 -40 -28 0 16 39 88 77 144 38 55 38 87 1 119 -39 33 -71 22 -133 -45 -71 -79 -89 -118 -81 -178 9 -71 -6 -78 -37 -16 -32 62 -34 105 -7 163 24 53 101 137 155 168 38 23 277 113 301 114 5 1 21 -31 33 -71z m-256 -179 c6 -10 -1 -29 -25 -65 -18 -28 -37 -58 -43 -67 -12 -18 -75 -12 -75 7 0 18 111 147 123 143 6 -2 15 -10 20 -18z m-93 -209 c0 -15 9 -35 20 -45 17 -15 24 -16 46 -7 13 7 26 12 28 12 7 0 39 -75 47 -107 l7 -33 -88 0 c-49 0 -92 5 -95 10 -3 6 -16 10 -29 10 -44 0 -63 50 -27 70 25 13 51 3 51 -19 0 -23 19 -41 36 -34 22 8 16 52 -10 77 -13 13 -26 42 -29 64 -7 38 -6 39 18 34 19 -3 25 -10 25 -32z m-160 -26 c19 -31 21 -39 10 -59 -12 -22 -11 -51 4 -85 5 -13 -6 -15 -73 -12 l-79 3 8 32 c10 47 28 77 68 120 20 20 37 37 38 37 1 0 12 -16 24 -36z m465 -260 l0 -59 -410 0 -410 0 -3 57 -3 58 403 2 c222 2 408 3 413 2 6 0 10 -27 10 -60z m-3 -156 c30 -29 68 -75 84 -103 l29 -50 0 -425 c0 -401 -1 -427 -19 -453 -39 -57 -61 -62 -298 -65 -122 -2 -218 0 -218 5 0 5 13 22 30 38 107 103 62 299 -85 366 -109 50 -249 -4 -301 -115 -44 -95 -27 -197 44 -264 l37 -35 -67 6 c-90 8 -125 28 -149 83 -19 42 -20 64 -17 452 l3 407 24 45 c13 25 50 71 83 102 l59 58 353 0 353 0 55 -52z m-483 -737 c107 -51 135 -202 54 -292 -63 -70 -168 -82 -248 -28 -36 25 -85 107 -85 143 0 81 63 167 139 190 51 15 89 12 140 -13z"/>
    <path d="M950 1156 c-68 -14 -122 -53 -158 -115 -51 -86 -31 -211 45 -283 115 -109 297 -79 368 62 90 177 -60 375 -255 336z m143 -64 c41 -23 86 -88 93 -133 13 -77 -42 -176 -113 -205 -81 -34 -182 -5 -229 65 -67 102 -31 231 81 283 48 22 120 18 168 -10z"/>
    <path d="M980 1059 c0 -6 -11 -20 -25 -31 -46 -36 -27 -97 37 -113 50 -13 59 -53 18 -75 -21 -11 -50 10 -50 36 0 8 -7 14 -15 14 -25 0 -17 -38 17 -75 33 -35 48 -43 48 -26 0 5 14 23 31 40 23 24 29 36 24 53 -11 34 -34 57 -63 60 -52 6 -55 69 -3 76 15 2 24 -4 31 -22 10 -28 40 -36 40 -11 0 17 -64 85 -80 85 -5 0 -10 -5 -10 -11z"/>
    <path d="M1324 846 c-188 -88 -176 -349 21 -432 105 -43 241 13 291 120 94 201 -111 406 -312 312z m172 -37 c32 -11 83 -58 101 -92 20 -40 20 -124 0 -163 -21 -41 -80 -92 -115 -100 -15 -3 -32 -7 -38 -9 -22 -6 -99 16 -131 38 -70 47 -98 159 -60 233 21 41 80 92 115 100 15 3 32 7 37 9 12 3 62 -5 91 -16z"/>
    <path d="M1410 766 c0 -8 -9 -18 -20 -21 -24 -8 -36 -49 -24 -84 7 -19 21 -30 52 -39 33 -11 42 -19 42 -37 0 -50 -52 -58 -70 -10 -12 32 -30 32 -30 1 0 -14 11 -33 25 -44 14 -11 25 -25 25 -31 0 -6 7 -11 15 -11 8 0 15 5 15 11 0 6 11 20 25 31 45 35 28 101 -29 116 -38 10 -55 36 -40 60 17 26 47 21 62 -10 16 -35 32 -36 32 -4 0 24 -23 56 -41 56 -5 0 -9 7 -9 15 0 8 -7 15 -15 15 -8 0 -15 -6 -15 -14z"/>
    <path d="M1050 416 c0 -8 -9 -18 -20 -21 -22 -7 -34 -39 -28 -76 3 -21 14 -30 78 -59 24 -11 24 -47 1 -60 -16 -8 -24 -7 -40 9 -10 10 -20 24 -23 32 -2 7 -9 10 -15 6 -18 -11 -2 -58 23 -69 13 -6 24 -17 24 -25 0 -7 7 -13 15 -13 8 0 15 5 15 11 0 6 11 20 25 31 47 37 28 101 -35 118 -32 9 -40 15 -40 34 0 51 52 59 70 11 12 -32 30 -32 30 -1 0 14 -11 33 -25 44 -14 11 -25 25 -25 31 0 6 -7 11 -15 11 -8 0 -15 -6 -15 -14z"/>
  </g>
</svg>