<svg xmlns="http://www.w3.org/2000/svg" xmlns:xlink="http://www.w3.org/1999/xlink" version="1.1" xml:space="preserve" fill="red" stroke="red" viewBox="1.41 26.43 252.9 202.85">

<defs fill="#ff0000">
</defs>
<g style="stroke: none; stroke-width: 0; stroke-dasharray: none; stroke-linecap: butt; stroke-linejoin: miter; stroke-miterlimit: 10; fill:#fc0000; opacity: 1;" transform="translate(1.4065934065934016 1.4065934065934016) scale(2.81 2.81)">
	<path color="red" fill="red" stroke="red" d="M 36.602 33.271 c -0.254 0.49 -0.063 1.094 0.428 1.348 l 0.428 0.227 c 0.151 0.082 0.313 0.12 0.473 0.12 c 0.356 0 0.701 -0.19 0.881 -0.526 c 0.262 -0.486 0.08 -1.093 -0.406 -1.354 l -0.457 -0.241 C 37.459 32.589 36.856 32.782 36.602 33.271 z" style="stroke: none; stroke-width: 1; stroke-dasharray: none; stroke-linecap: butt; stroke-linejoin: miter; stroke-miterlimit: 10; fill:#d3d3d3; fill-rule: nonzero; opacity: 1;" transform=" matrix(1 0 0 1 0 0) " stroke-linecap="round"/>
	<path color="red" fill="red" stroke="red" d="M 49.739 49.017 c 0.042 0 0.085 -0.003 0.128 -0.008 c 0.548 -0.07 0.936 -0.571 0.865 -1.119 c -0.047 -0.363 -0.099 -0.721 -0.157 -1.074 c -0.09 -0.545 -0.607 -0.921 -1.149 -0.823 c -0.545 0.09 -0.914 0.604 -0.823 1.149 c 0.055 0.33 0.103 0.664 0.146 1.002 C 48.813 48.648 49.243 49.017 49.739 49.017 z" style="stroke: none; stroke-width: 1; stroke-dasharray: none; stroke-linecap: butt; stroke-linejoin: miter; stroke-miterlimit: 10; fill:#d3d3d3; fill-rule: nonzero; opacity: 1;" transform=" matrix(1 0 0 1 0 0) " stroke-linecap="round"/>
	<path color="red" fill="red" stroke="red" d="M 43.86 39.943 c 0.196 0.269 0.5 0.412 0.81 0.412 c 0.204 0 0.409 -0.062 0.587 -0.191 c 0.446 -0.325 0.546 -0.95 0.221 -1.397 c -0.214 -0.294 -0.435 -0.585 -0.663 -0.871 c -0.344 -0.43 -0.974 -0.503 -1.405 -0.157 c -0.432 0.344 -0.502 0.974 -0.157 1.405 C 43.461 39.407 43.664 39.673 43.86 39.943 z" style="stroke: none; stroke-width: 1; stroke-dasharray: none; stroke-linecap: butt; stroke-linejoin: miter; stroke-miterlimit: 10; fill:#d3d3d3; fill-rule: nonzero; opacity: 1;" transform=" matrix(1 0 0 1 0 0) " stroke-linecap="round"/>
	<path color="red" fill="red" stroke="red" d="M 32.331 38.215 c -0.451 0.319 -0.558 0.943 -0.239 1.394 c 0.092 0.13 0.182 0.26 0.27 0.391 c 0.193 0.288 0.509 0.443 0.832 0.443 c 0.191 0 0.385 -0.055 0.556 -0.169 c 0.459 -0.307 0.582 -0.929 0.274 -1.387 c -0.097 -0.145 -0.196 -0.289 -0.298 -0.432 C 33.406 38.004 32.783 37.896 32.331 38.215 z" style="stroke: none; stroke-width: 1; stroke-dasharray: none; stroke-linecap: butt; stroke-linejoin: miter; stroke-miterlimit: 10; fill:#d3d3d3; fill-rule: nonzero; opacity: 1;" transform=" matrix(1 0 0 1 0 0) " stroke-linecap="round"/>
	<path color="red" fill="red" stroke="red" d="M 35.263 48.568 c 0.003 0 0.006 0 0.009 0 c 0.552 -0.005 0.996 -0.457 0.991 -1.009 c -0.003 -0.342 -0.014 -0.683 -0.033 -1.021 c -0.031 -0.552 -0.507 -0.967 -1.054 -0.942 c -0.552 0.03 -0.974 0.502 -0.943 1.054 c 0.017 0.308 0.027 0.617 0.03 0.928 C 34.268 48.127 34.714 48.568 35.263 48.568 z" style="stroke: none; stroke-width: 1; stroke-dasharray: none; stroke-linecap: butt; stroke-linejoin: miter; stroke-miterlimit: 10; fill:#d3d3d3; fill-rule: nonzero; opacity: 1;" transform=" matrix(1 0 0 1 0 0) " stroke-linecap="round"/>
	<path color="red" fill="red" stroke="red" d="M 34.974 56.526 c 0.114 0.042 0.231 0.062 0.347 0.062 c 0.407 0 0.789 -0.25 0.938 -0.653 l 0.175 -0.483 c 0.184 -0.521 -0.088 -1.093 -0.609 -1.276 c -0.519 -0.183 -1.092 0.088 -1.276 0.608 l -0.166 0.458 C 34.191 55.76 34.456 56.334 34.974 56.526 z" style="stroke: none; stroke-width: 1; stroke-dasharray: none; stroke-linecap: butt; stroke-linejoin: miter; stroke-miterlimit: 10; fill:#d3d3d3; fill-rule: nonzero; opacity: 1;" transform=" matrix(1 0 0 1 0 0) " stroke-linecap="round"/>
	<path color="red" fill="red" stroke="red" d="M 37.508 39.73 c -0.451 0.319 -0.558 0.943 -0.239 1.394 c 0.092 0.13 0.182 0.26 0.27 0.391 c 0.193 0.288 0.509 0.443 0.832 0.443 c 0.191 0 0.385 -0.055 0.556 -0.169 c 0.459 -0.307 0.582 -0.929 0.274 -1.387 c -0.097 -0.145 -0.196 -0.289 -0.298 -0.432 C 38.583 39.519 37.959 39.412 37.508 39.73 z" style="stroke: none; stroke-width: 1; stroke-dasharray: none; stroke-linecap: butt; stroke-linejoin: miter; stroke-miterlimit: 10; fill:#d3d3d3; fill-rule: nonzero; opacity: 1;" transform=" matrix(1 0 0 1 0 0) " stroke-linecap="round"/>
	<path color="red" fill="red" stroke="red" d="M 87.832 73.22 h -4.397 c -1.031 -2.447 -3.466 -4.1 -6.164 -4.1 c -0.805 0 -1.604 0.146 -2.354 0.429 c -1.523 -2.309 -3.984 -3.8 -6.727 -4.096 v -5.51 c 1.398 -0.103 2.639 -0.839 3.41 -2.033 c 0.791 -1.224 0.949 -2.698 0.433 -4.047 c -0.819 -2.14 -2.171 -4.142 -4.133 -6.121 c -0.375 -0.379 -1.045 -0.379 -1.42 0 c -1.962 1.979 -3.313 3.981 -4.132 6.121 c -0.517 1.348 -0.359 2.823 0.431 4.047 c 0.772 1.194 2.012 1.93 3.411 2.033 v 5.504 c -2.132 0.228 -4.098 1.18 -5.601 2.716 c -1.172 -0.896 -2.594 -1.38 -4.097 -1.38 c -1.608 0 -3.145 0.567 -4.356 1.586 c -1.593 -1.721 -3.792 -2.774 -6.136 -2.944 v -5.483 c 1.398 -0.103 2.639 -0.839 3.41 -2.033 c 0.791 -1.224 0.949 -2.698 0.433 -4.047 c -0.819 -2.14 -2.171 -4.142 -4.132 -6.121 c -0.376 -0.379 -1.045 -0.379 -1.421 0 c -1.962 1.98 -3.314 3.982 -4.132 6.121 c -0.516 1.349 -0.358 2.824 0.433 4.048 c 0.771 1.193 2.012 1.929 3.41 2.032 V 65.5 c -2.154 0.315 -4.132 1.372 -5.582 3.007 c -1.232 -1.107 -2.822 -1.724 -4.513 -1.724 c -1.591 0 -3.115 0.559 -4.323 1.561 c -1.514 -1.623 -3.57 -2.654 -5.772 -2.896 v -5.505 c 1.398 -0.103 2.639 -0.839 3.41 -2.032 c 0.791 -1.224 0.949 -2.699 0.433 -4.048 c -0.819 -2.14 -2.171 -4.142 -4.132 -6.121 c -0.376 -0.379 -1.045 -0.379 -1.421 0 c -1.962 1.98 -3.314 3.982 -4.132 6.121 c -0.516 1.349 -0.358 2.824 0.433 4.048 c 0.771 1.193 2.012 1.929 3.41 2.032 v 5.51 c -2.743 0.296 -5.203 1.787 -6.727 4.096 c -0.75 -0.282 -1.549 -0.429 -2.354 -0.429 c -2.698 0 -5.133 1.652 -6.165 4.1 H 2.168 C 0.973 73.22 0 74.192 0 75.388 v 3.539 c 0 1.195 0.973 2.168 2.168 2.168 h 85.664 c 1.195 0 2.168 -0.973 2.168 -2.168 v -3.539 C 90 74.192 89.027 73.22 87.832 73.22 z M 64.459 56.824 c -0.44 -0.683 -0.529 -1.501 -0.244 -2.247 c 0.617 -1.611 1.594 -3.148 2.975 -4.678 c 1.381 1.529 2.358 3.066 2.976 4.678 c 0.285 0.746 0.196 1.565 -0.245 2.247 c -0.435 0.673 -1.135 1.085 -1.918 1.131 c -0.226 0.013 -0.473 0.014 -0.801 0.002 c -0.004 0 -0.007 -0.002 -0.011 -0.002 c -0.003 0 -0.006 0.002 -0.009 0.002 c -0.014 -0.001 -0.024 0 -0.039 -0.001 c -0.268 0.015 -0.522 0.012 -0.764 -0.001 C 65.594 57.909 64.894 57.497 64.459 56.824 z M 42.27 56.824 c -0.441 -0.682 -0.53 -1.501 -0.244 -2.247 c 0.616 -1.61 1.593 -3.148 2.975 -4.678 c 1.381 1.529 2.358 3.066 2.976 4.678 c 0.285 0.746 0.196 1.565 -0.245 2.247 c -0.435 0.673 -1.135 1.085 -1.918 1.131 c -0.226 0.013 -0.471 0.014 -0.801 0.002 c -0.004 0 -0.007 -0.002 -0.011 -0.002 c -0.003 0 -0.006 0.002 -0.009 0.002 c -0.015 -0.001 -0.024 0 -0.039 -0.001 c -0.266 0.015 -0.521 0.013 -0.763 -0.001 C 43.404 57.909 42.705 57.497 42.27 56.824 z M 20.08 56.824 c -0.441 -0.682 -0.53 -1.501 -0.244 -2.247 c 0.616 -1.61 1.593 -3.148 2.975 -4.678 c 1.381 1.528 2.358 3.066 2.975 4.678 c 0.286 0.746 0.197 1.565 -0.244 2.247 c -0.435 0.673 -1.135 1.085 -1.918 1.131 c -0.227 0.013 -0.472 0.014 -0.801 0.002 c -0.004 0 -0.007 -0.002 -0.011 -0.002 c -0.003 0 -0.006 0.002 -0.009 0.002 c -0.015 -0.001 -0.024 0 -0.039 -0.001 c -0.267 0.015 -0.521 0.013 -0.763 -0.001 C 21.215 57.909 20.515 57.497 20.08 56.824 z M 88 78.927 c 0 0.093 -0.075 0.168 -0.168 0.168 H 2.168 C 2.075 79.095 2 79.02 2 78.927 v -3.539 c 0 -0.093 0.075 -0.168 0.168 -0.168 h 5.101 c 0.445 0 0.836 -0.294 0.96 -0.721 c 0.579 -1.989 2.43 -3.379 4.5 -3.379 c 0.793 0 1.579 0.203 2.271 0.588 c 0.236 0.131 0.514 0.162 0.773 0.084 c 0.258 -0.077 0.474 -0.256 0.599 -0.495 c 1.26 -2.409 3.727 -3.906 6.438 -3.906 c 2.32 0 4.519 1.127 5.884 3.016 c 0.18 0.249 0.464 0.401 0.771 0.413 c 0.31 0.017 0.603 -0.117 0.801 -0.351 c 0.913 -1.071 2.239 -1.686 3.639 -1.686 c 1.492 0 2.873 0.683 3.789 1.874 c 0.196 0.256 0.504 0.427 0.824 0.39 c 0.322 -0.01 0.619 -0.174 0.798 -0.44 c 1.355 -2.014 3.606 -3.216 6.021 -3.216 c 2.336 0 4.545 1.139 5.908 3.046 c 0.18 0.252 0.466 0.406 0.775 0.418 c 0.309 0.027 0.606 -0.12 0.805 -0.356 c 0.913 -1.09 2.249 -1.715 3.666 -1.715 c 1.317 0 2.546 0.528 3.459 1.487 c 0.201 0.211 0.482 0.323 0.774 0.31 c 0.29 -0.015 0.561 -0.155 0.739 -0.384 c 1.39 -1.783 3.476 -2.806 5.725 -2.806 c 2.712 0 5.179 1.497 6.438 3.906 c 0.124 0.239 0.341 0.418 0.599 0.495 c 0.257 0.078 0.537 0.047 0.772 -0.084 c 0.692 -0.385 1.479 -0.588 2.271 -0.588 c 2.071 0 3.921 1.39 4.5 3.379 c 0.124 0.427 0.516 0.721 0.96 0.721 h 5.102 c 0.093 0 0.168 0.075 0.168 0.168 V 78.927 z" style="stroke: none; stroke-width: 1; stroke-dasharray: none; stroke-linecap: butt; stroke-linejoin: miter; stroke-miterlimit: 10; fill:#d3d3d3; fill-rule: nonzero; opacity: 1;" transform=" matrix(1 0 0 1 0 0) " stroke-linecap="round"/>
	<path color="red" fill="red" stroke="red" d="M 10.514 25.359 c 0.002 0.096 0.004 0.191 0.009 0.286 c 0.022 0.435 0.067 0.866 0.147 1.29 c 0.003 0.018 0.009 0.035 0.012 0.053 c 0.083 0.427 0.202 0.845 0.343 1.256 c 0.018 0.053 0.035 0.106 0.054 0.159 c 0.154 0.423 0.337 0.836 0.551 1.236 c 0.006 0.011 0.01 0.024 0.016 0.035 c 0.006 0.011 0.016 0.019 0.022 0.03 c 0.26 0.475 0.554 0.936 0.898 1.369 c 1.583 1.995 3.848 3.255 6.377 3.547 c 0.37 0.042 0.736 0.063 1.1 0.063 c 4.772 0 8.905 -3.589 9.464 -8.442 c 0.292 -2.53 -0.418 -5.022 -2.001 -7.018 c -1.583 -1.995 -3.848 -3.255 -6.377 -3.547 c -3.196 -0.369 -6.201 0.897 -8.196 3.126 c -0.011 0.011 -0.026 0.017 -0.036 0.029 c -0.013 0.015 -0.022 0.032 -0.035 0.047 c -0.278 0.317 -0.531 0.656 -0.766 1.01 c -0.055 0.083 -0.107 0.167 -0.159 0.252 c -0.212 0.342 -0.408 0.694 -0.576 1.064 c -0.012 0.026 -0.026 0.05 -0.038 0.075 c -0.17 0.382 -0.306 0.783 -0.426 1.191 c -0.031 0.105 -0.059 0.209 -0.086 0.315 c -0.104 0.409 -0.192 0.825 -0.242 1.255 c -0.001 0.005 -0.002 0.01 -0.003 0.016 c -0.001 0.006 0 0.011 -0.001 0.017 C 10.515 24.503 10.505 24.932 10.514 25.359 z M 12.547 24.365 c 0.003 -0.027 0.002 -0.054 0.005 -0.081 c 0.001 -0.007 0.003 -0.014 0.004 -0.021 c 0.031 -0.259 0.075 -0.515 0.131 -0.767 c 0.021 -0.092 0.05 -0.179 0.074 -0.27 c 0.043 -0.164 0.086 -0.328 0.139 -0.488 c 0.036 -0.107 0.08 -0.21 0.121 -0.315 c 0.053 -0.138 0.106 -0.276 0.168 -0.41 c 0.05 -0.109 0.106 -0.214 0.161 -0.319 c 0.064 -0.125 0.13 -0.249 0.201 -0.37 c 0.016 -0.027 0.034 -0.053 0.051 -0.08 c -0.022 0.113 -0.057 0.222 -0.125 0.317 c -0.157 0.219 -0.218 0.492 -0.171 0.757 s 0.2 0.5 0.422 0.651 c 0.503 0.342 0.773 0.928 0.703 1.531 c -0.069 0.602 -0.465 1.111 -1.033 1.329 c -0.251 0.097 -0.453 0.291 -0.56 0.539 s -0.109 0.527 -0.006 0.776 c 0.047 0.114 0.06 0.234 0.052 0.356 c -0.007 -0.022 -0.015 -0.043 -0.022 -0.065 c -0.058 -0.182 -0.108 -0.366 -0.152 -0.551 c -0.018 -0.075 -0.037 -0.15 -0.053 -0.226 c -0.037 -0.18 -0.064 -0.363 -0.087 -0.545 c -0.01 -0.081 -0.024 -0.162 -0.032 -0.243 c -0.018 -0.186 -0.024 -0.373 -0.027 -0.56 c -0.002 -0.078 -0.008 -0.156 -0.007 -0.235 C 12.506 24.839 12.522 24.602 12.547 24.365 z M 20.9 17.663 c 2 0.23 3.789 1.226 5.04 2.803 c 1.251 1.577 1.813 3.546 1.582 5.545 c -0.476 4.127 -4.225 7.102 -8.348 6.622 c -2 -0.23 -3.789 -1.226 -5.04 -2.803 c -0.072 -0.09 -0.133 -0.186 -0.2 -0.279 c 0.512 -0.45 0.86 -1.078 0.941 -1.777 c 0.018 -0.161 0.022 -0.323 0.013 -0.484 c 0.568 -0.394 0.993 -0.948 1.258 -1.583 l 0.879 0.101 c 0.063 0.846 0.444 1.627 1.118 2.182 c 0.573 0.472 1.29 0.723 2.015 0.723 c 0.258 0 0.517 -0.032 0.771 -0.097 c 1.419 -0.363 2.787 -1.072 4.181 -2.167 c 0.21 -0.165 0.345 -0.406 0.375 -0.671 c 0.031 -0.265 -0.046 -0.531 -0.212 -0.74 c -1.108 -1.384 -2.278 -2.385 -3.577 -3.062 c -0.887 -0.462 -1.954 -0.471 -2.855 -0.025 c -0.784 0.387 -1.333 1.062 -1.586 1.871 l -0.879 -0.101 c -0.114 -0.679 -0.402 -1.316 -0.865 -1.828 c 0.046 -0.155 0.079 -0.314 0.098 -0.476 c 0.08 -0.698 -0.115 -1.387 -0.51 -1.941 C 16.641 18.132 18.714 17.411 20.9 17.663 z M 20.434 26.678 c -0.357 0.09 -0.728 0.006 -1.019 -0.232 c -0.286 -0.235 -0.438 -0.577 -0.417 -0.936 c 0.007 -0.123 0.023 -0.261 0.051 -0.462 c 0.001 -0.005 0.003 -0.008 0.004 -0.013 c 0 -0.004 -0.001 -0.007 -0.001 -0.01 c 0.002 -0.014 0.003 -0.022 0.005 -0.036 c 0.01 -0.15 0.027 -0.293 0.051 -0.428 c 0.062 -0.355 0.288 -0.653 0.62 -0.817 c 0.167 -0.083 0.344 -0.124 0.521 -0.124 c 0.18 0 0.359 0.043 0.524 0.129 c 0.792 0.413 1.534 0.987 2.25 1.744 C 22.152 26.066 21.298 26.457 20.434 26.678 z" style="stroke: none; stroke-width: 1; stroke-dasharray: none; stroke-linecap: butt; stroke-linejoin: miter; stroke-miterlimit: 10; fill:#d3d3d3; fill-rule: nonzero; opacity: 1;" transform=" matrix(1 0 0 1 0 0) " stroke-linecap="round"/>
	<path color="red" fill="red" stroke="red" d="M 6.24 38.578 c 4.716 0.509 8.889 0.763 12.762 0.763 c 3.531 0 6.815 -0.211 10.034 -0.632 c 0.252 -0.033 0.483 -0.162 0.645 -0.359 l 6.594 -8.069 c 0.121 -0.148 0.197 -0.328 0.219 -0.518 l 1.433 -12.42 c 0.048 -0.423 -0.176 -0.831 -0.56 -1.016 C 27.496 11.571 17.375 9.875 9.66 8.929 c -0.832 -0.1 -1.656 0.127 -2.317 0.647 s -1.078 1.266 -1.174 2.101 l -2.703 23.43 c -0.096 0.835 0.14 1.656 0.665 2.313 C 4.656 38.077 5.405 38.488 6.24 38.578 z M 8.156 11.907 c 0.035 -0.302 0.186 -0.571 0.424 -0.759 c 0.201 -0.158 0.444 -0.242 0.697 -0.242 c 0.046 0 0.093 0.003 0.14 0.009 c 7.394 0.907 17.034 2.512 26.44 6.911 L 34.54 29.243 l -6.156 7.533 c -6.468 0.811 -13.254 0.75 -21.929 -0.187 c -0.302 -0.033 -0.572 -0.181 -0.761 -0.418 c -0.19 -0.237 -0.275 -0.534 -0.24 -0.835 L 8.156 11.907 z" style="stroke: none; stroke-width: 1; stroke-dasharray: none; stroke-linecap: butt; stroke-linejoin: miter; stroke-miterlimit: 10; fill:#d3d3d3; fill-rule: nonzero; opacity: 1;" transform=" matrix(1 0 0 1 0 0) " stroke-linecap="round"/>
	<path color="red" fill="red" stroke="red" d="M 40.354 46.727 c 0.092 0.542 0.603 0.907 1.144 0.82 c 0.003 0 0.006 -0.001 0.009 -0.001 c 0.545 -0.092 0.911 -0.609 0.819 -1.153 c -0.057 -0.337 -0.122 -0.672 -0.194 -1.003 c -0.118 -0.54 -0.653 -0.874 -1.19 -0.764 c -0.54 0.117 -0.882 0.65 -0.764 1.19 C 40.243 46.116 40.302 46.421 40.354 46.727 z" style="stroke: none; stroke-width: 1; stroke-dasharray: none; stroke-linecap: butt; stroke-linejoin: miter; stroke-miterlimit: 10; fill:#d3d3d3; fill-rule: nonzero; opacity: 1;" transform=" matrix(1 0 0 1 0 0) " stroke-linecap="round"/>
</g>
</svg>