<svg xmlns="http://www.w3.org/2000/svg" version="1.0" preserveAspectRatio="xMidYMid meet" viewBox="21 23 182 253.5">

<g transform="translate(0.000000,285.000000) scale(0.100000,-0.100000)" fill="#D3D3D3" stroke="none">
<path d="M566 2604 c-3 -9 -6 -48 -6 -87 l0 -72 -175 -292 -175 -292 2 -888 3 -888 905 0 905 0 3 888 2 888 -175 292 -175 292 0 72 c0 39 -3 78 -6 87 -6 14 -64 16 -554 16 -490 0 -548 -2 -554 -16z m1054 -84 l0 -50 -500 0 c-275 0 -501 3 -501 8 -4 23 -5 78 -2 85 2 4 229 7 504 7 l499 0 0 -50z m-20 -106 c0 -3 -73 -127 -161 -275 l-162 -269 -499 0 c-276 0 -498 4 -496 9 2 4 75 128 163 275 l160 266 497 0 c274 0 498 -3 498 -6z m357 -540 c-2 -3 -142 -3 -310 -2 l-307 3 141 235 c77 129 147 246 156 259 14 22 19 17 169 -234 85 -142 153 -259 151 -261z m-687 -589 l0 -535 -505 0 -505 0 0 535 0 535 505 0 505 0 0 -535z m348 -212 l-3 -746 -140 -83 c-77 -46 -143 -84 -147 -84 -5 0 -8 374 -8 830 l0 830 150 0 150 0 -2 -747z m362 -83 c0 -456 -2 -830 -6 -830 -3 0 -70 39 -150 86 l-144 86 0 744 0 744 150 0 150 0 0 -830z m-710 -400 l0 -100 -505 0 -505 0 0 100 0 100 505 0 505 0 0 -100z m0 -305 l0 -155 -505 0 -505 0 0 155 0 155 505 0 505 0 0 -155z m620 -141 c12 -12 -24 -14 -238 -14 -139 0 -252 2 -252 5 0 2 57 38 126 79 l126 74 111 -65 c62 -36 119 -72 127 -79z"/>
<path d="M822 2387 c-101 -37 -168 -152 -142 -245 13 -49 86 -133 147 -168 36 -22 53 -26 93 -22 138 14 237 163 186 281 -17 40 -121 142 -159 156 -36 14 -83 13 -125 -2z m117 -51 c72 -38 66 -144 -12 -213 -63 -55 -140 -55 -181 1 -46 60 -8 163 76 205 50 25 79 26 117 7z m131 -174 c0 -88 -100 -174 -185 -158 -49 10 -52 23 -7 36 70 18 122 69 149 143 16 42 19 46 30 30 7 -9 13 -32 13 -51z"/>
<path d="M691 1499 c-13 -5 -36 -19 -52 -30 l-30 -21 -65 28 c-75 32 -84 28 -91 -38 -7 -57 25 -121 73 -150 28 -16 34 -26 34 -52 0 -21 -8 -40 -21 -52 -72 -63 -77 -214 -11 -287 42 -47 83 -57 231 -57 150 0 180 6 224 48 44 42 57 75 57 148 0 53 -5 76 -25 109 -13 24 -31 45 -40 49 -9 3 -15 18 -15 40 0 28 6 37 35 55 50 29 75 75 75 137 0 74 -13 81 -94 48 -60 -25 -67 -26 -83 -12 -51 44 -142 61 -202 37z m150 -62 c46 -30 69 -80 69 -147 l0 -55 -150 0 -150 0 0 50 c1 65 30 129 72 155 46 28 115 27 159 -3z m-292 -18 c35 -12 35 -14 20 -57 -6 -17 -16 -29 -23 -26 -16 6 -46 57 -46 78 0 19 7 20 49 5z m471 -13 c0 -22 -34 -76 -48 -76 -4 0 -12 16 -18 35 -11 33 -10 37 15 50 38 20 51 18 51 -9z m-132 -225 c12 0 39 -16 59 -35 33 -30 37 -39 41 -93 5 -71 -13 -114 -61 -143 -45 -28 -283 -29 -328 -3 -44 26 -73 94 -65 150 10 72 49 113 121 125 18 3 171 3 233 -1z"/>
<path d="M587 1102 c-39 -40 -37 -93 3 -134 27 -27 36 -30 72 -25 22 3 50 14 60 25 11 10 22 38 25 60 5 36 2 45 -25 72 -42 41 -97 42 -135 2z m103 -42 c14 -26 4 -57 -20 -65 -44 -14 -80 41 -48 73 19 19 56 14 68 -8z"/>
<path d="M813 1115 c-12 -8 -27 -31 -33 -50 -20 -60 27 -125 91 -125 90 0 129 124 55 175 -27 19 -86 19 -113 0z m83 -43 c19 -13 23 -39 8 -61 -26 -36 -74 -21 -74 24 0 36 37 57 66 37z"/>
<path d="M1772 1638 c3 -21 9 -23 58 -23 49 0 55 2 58 23 3 21 0 22 -58 22 -58 0 -61 -1 -58 -22z"/>
<path d="M1772 1488 c3 -21 8 -23 58 -23 48 0 55 2 55 20 0 17 -8 20 -58 23 -56 3 -58 2 -55 -20z"/>
<path d="M1774 1345 c-10 -26 10 -36 62 -33 41 3 49 6 49 23 0 17 -8 20 -53 23 -41 2 -54 0 -58 -13z"/>
</g>
</svg>