<svg fill="#D3D3D3" xmlns="http://www.w3.org/2000/svg" data-name="Layer 1" x="0px" y="0px" viewBox="5.92 7.13 52.17 49.74">
<path d="M52.71,45.66h-3.6V12.74A5.62,5.62,0,0,0,43.5,7.13H11.29a5.61,5.61,0,0,0,0,11.21h3.6V51.26a1.15,1.15,0,0,0,0,.24,5.62,5.62,0,0,0,5.59,5.37H52.71a5.61,5.61,0,0,0,0-11.21ZM43.5,9.13a3.61,3.61,0,0,1,3.61,3.61V45.66H20.5a4.73,4.73,0,0,0-.93.09h-.12a7.84,7.84,0,0,0-.83.23l-.14,0a5.84,5.84,0,0,0-.76.36l-.11.07a5.83,5.83,0,0,0-.7.49l0,0V12.74a5.64,5.64,0,0,0-.08-.93s0-.08,0-.12a4.87,4.87,0,0,0-.23-.83,1.21,1.21,0,0,0,0-.14,5.17,5.17,0,0,0-.36-.75.47.47,0,0,0-.07-.12,5.83,5.83,0,0,0-.49-.7v0ZM7.69,12.74a3.6,3.6,0,1,1,3.6,3.6A3.61,3.61,0,0,1,7.69,12.74Zm9.22,38.63s0-.08,0-.12,0-.27.05-.4a3.16,3.16,0,0,1,0-.32c0-.14.08-.26.12-.39s.05-.19.09-.28.13-.25.2-.37.08-.17.13-.24.19-.23.28-.34.1-.14.16-.2.24-.19.36-.29a1.24,1.24,0,0,1,.18-.14,3.3,3.3,0,0,1,.41-.23l.2-.11c.15-.06.32-.1.49-.15l.18,0a3.55,3.55,0,0,1,.73-.08,4.39,4.39,0,0,1,.72.07c.16,0,.32.1.47.15l.2.06a3.63,3.63,0,0,1,2.21,3.3.53.53,0,0,0,0,.13,3.59,3.59,0,0,1-7.18,0Zm35.8,3.5H24.77l.15-.22.23-.31c.11-.18.21-.35.31-.54l.17-.34c.08-.2.15-.42.22-.63s.07-.21.09-.32a4.91,4.91,0,0,0,.14-1,1.15,1.15,0,0,0,0-.24,5.62,5.62,0,0,0-.09-.92s0-.08,0-.12a7.22,7.22,0,0,0-.23-.83.78.78,0,0,1-.05-.14,6.61,6.61,0,0,0-.36-.76l-.07-.12a5.49,5.49,0,0,0-.5-.69v0H52.71a3.61,3.61,0,0,1,0,7.21Z"/><path d="M42.63,16H21.37a1,1,0,1,1,0-2H42.63a1,1,0,0,1,0,2Z"/><path d="M42.63,23.64H21.37a1,1,0,0,1,0-2H42.63a1,1,0,1,1,0,2Z"/><path d="M42.63,31.24H21.37a1,1,0,0,1,0-2H42.63a1,1,0,0,1,0,2Z"/><path d="M42.63,38.84H21.37a1,1,0,0,1,0-2H42.63a1,1,0,0,1,0,2Z"/>
</svg>