<?xml version="1.0" encoding="utf-8"?><svg version="1.1" id="Layer_1" xmlns="http://www.w3.org/2000/svg" xmlns:xlink="http://www.w3.org/1999/xlink" x="0px" y="0px" viewBox="0 0 119.71 122.88" style="enable-background:new 0 0 119.71 122.88" xml:space="preserve"><style type="text/css"><![CDATA[
	.st0{fill-rule:evenodd;clip-rule:evenodd;}
]]></style><g><path class="st0" fill="#D3D3D3" d="M40.06,0.37c9.4,0,17.03,11.69,17.03,26.1c0,14.41-7.63,26.1-17.03,26.1c-9.4,0-17.03-11.68-17.03-26.1 C23.04,12.06,30.66,0.37,40.06,0.37L40.06,0.37L40.06,0.37z M58.35,76.23h6.57c1.23,0,2.23,1,2.23,2.23v7.65h7.65 c1.23,0,2.23,1,2.23,2.23v6.57c0,1.23-1,2.23-2.23,2.23h-7.65v7.65c0,1.23-1,2.23-2.23,2.23h-6.57c-1.23,0-2.23-1.01-2.23-2.23 v-7.65h-7.65c-1.23,0-2.23-1-2.23-2.23v-6.57c0-1.23,1-2.23,2.23-2.23h7.65v-7.65C56.12,77.24,57.12,76.23,58.35,76.23L58.35,76.23 L58.35,76.23z M61.71,63.55c19.94,0.04,22.42,13.25,39.23,35.86c8.38,16.45-2.5,26.82-21.15,22.38 c-8.46-4.31-14.41-5.83-20.38-5.63c-10.34,0.36-12.95,7.18-24.98,6.7c-9.28-0.25-13.46-4.14-14.27-10.07 c-0.87-6.3,1.56-10.28,4.52-15.49C36.18,77.02,48.07,61.01,61.71,63.55L61.71,63.55L61.71,63.55L61.71,63.55z M7.17,39.08 C0.14,41.86-2.1,52.85,2.16,63.62C6.42,74.39,15.57,80.87,22.6,78.09s9.27-13.77,5.01-24.54C23.35,42.78,14.2,36.3,7.17,39.08 L7.17,39.08L7.17,39.08z M112.54,39.08c7.03,2.78,9.27,13.77,5.01,24.54c-4.26,10.77-13.42,17.25-20.44,14.47 c-7.03-2.78-9.27-13.77-5.01-24.54S105.51,36.3,112.54,39.08L112.54,39.08L112.54,39.08z M79.35,0c9.4,0,17.03,11.69,17.03,26.1 c0,14.41-7.63,26.1-17.03,26.1S62.32,40.52,62.32,26.1C62.33,11.69,69.95,0,79.35,0L79.35,0L79.35,0z"/></g></svg>