<?xml version="1.0" encoding="iso-8859-1"?>
<!-- Uploaded to: SVG Repo, www.svgrepo.com, Generator: SVG Repo Mixer Tools -->
<!DOCTYPE svg PUBLIC "-//W3C//DTD SVG 1.1//EN" "http://www.w3.org/Graphics/SVG/1.1/DTD/svg11.dtd">
<svg fill="#D3D3D3" height="800px" width="800px" version="1.1" id="Capa_1" xmlns="http://www.w3.org/2000/svg" xmlns:xlink="http://www.w3.org/1999/xlink" 
	 viewBox="0 0 385.735 385.735" xml:space="preserve">
<g>
	<g>
		<path d="M354.737,108.917L307.76,68.793c-1.266-1.083-2.879-1.678-4.545-1.678h-76.898V36.471c0-0.58-0.072-1.143-0.211-1.683
			C224.258,15.182,207.709,0,187.895,0c-19.805,0-36.346,15.161-38.211,34.75c-0.139,0.551-0.213,1.127-0.213,1.721v30.644h-34.164
			c-3.865,0-7,3.134-7,7v82.209c0,3.866,3.135,7,7,7h34.164v15.359H82.524c-1.406,0-2.779,0.424-3.941,1.216l-46.979,32.003
			c-1.891,1.288-3.031,3.419-3.059,5.707c-0.025,2.288,1.068,4.443,2.93,5.773l46.978,33.57c1.188,0.849,2.609,1.305,4.07,1.305
			h66.947v113.478H74.377c-3.867,0-7,3.133-7,7c0,3.865,3.133,7,7,7h82.094h62.846h82.09c3.865,0,7-3.135,7-7c0-3.867-3.135-7-7-7
			h-75.09V258.258h44.113c3.867,0,7-3.134,7-7v-65.574c0-3.865-3.133-7-7-7h-44.113v-15.359h76.898c1.723,0,3.387-0.636,4.67-1.786
			l46.976-42.085c1.504-1.347,2.354-3.277,2.328-5.296C357.166,112.138,356.272,110.228,354.737,108.917z M163.471,37.645
			c0.041-0.243,0.07-0.491,0.086-0.743C164.348,24.06,175.04,14,187.895,14c12.854,0,23.543,10.06,24.336,22.902
			c0.016,0.249,0.045,0.494,0.086,0.734v29.478h-48.846V37.645z M212.317,371.735h-48.846V258.258h48.846V371.735z M263.43,192.684
			v51.574H84.768l-36.99-26.433l36.904-25.142H263.43z M163.471,178.684v-15.359h48.846v15.359H163.471z M300.538,149.324h-168.23
			h-10V81.115h178.324l11.709,10l27.221,23.25L300.538,149.324z"/>
	</g>
</g>
</svg>