<svg xmlns="http://www.w3.org/2000/svg" xmlns:xlink="http://www.w3.org/1999/xlink" version="1.1" x="0px" y="0px" enable-background="new 0 0 64 64" xml:space="preserve" viewBox="16.31 2.47 31.38 59.06">
 <metadata><!--?xpacket begin="&#65279;" id="W5M0MpCehiHzreSzNTczkc9d"?-->
  <x:xmpmeta xmlns:x="adobe:ns:meta/" x:xmptk="Adobe XMP Core 5.3-c011 66.145661, 2012/02/06-14:56:27        ">
  </x:xmpmeta> <!--?xpacket end="w"?--> </metadata>
   <g> 
   <path style="fill:#D3D3D3;" d="M37.2847,18.1255L37.2847,18.1255c0.8208-0.0005,1.4399-0.7588,1.4399-1.7642v-2.0122   c0-1.0054-0.6191-1.7642-1.4399-1.7642h-2.8584V8.1733c0.5293-0.623,0.8257-1.4297,0.8257-2.2798   c0-1.8877-1.459-3.4233-3.252-3.4233c-1.7935,0-3.2515,1.5356-3.2515,3.4233c0,0.8501,0.2959,1.6567,0.8257,2.2798v4.4116h-2.8584   c-0.8213,0-1.4404,0.7588-1.4404,1.7642v2.0122c0,1.0054,0.6187,1.7637,1.4404,1.7642h2.835l-0.8047,36.5781   c-0.0029,0.1353,0.0205,0.2705,0.0693,0.3975l2.2085,5.7578c0.1548,0.4043,0.543,0.6709,0.9761,0.6709s0.8213-0.2666,0.9766-0.6709   l2.2085-5.7578c0.0483-0.127,0.0723-0.2622,0.0688-0.3975l-0.8047-36.5781H37.2847z">
   </path>
   <path style="fill:#D3D3D3;" d="M16.3115,23.123c0,4.8799,0.2207,11.1948,1.9424,16.751c0.9438,3.0454,2.27,5.6274,3.9424,7.6733   c1.4575,1.7847,3.2075,3.2007,5.2197,4.229l0.7319-33.2769l-11.1152,3.6289C16.6025,22.269,16.3115,22.6704,16.3115,23.123z">
   </path>
   <path style="fill:#D3D3D3;" d="M46.9673,22.1284l-11.1152-3.6289l0.7319,33.2769c2.0122-1.0283,3.7617-2.4443,5.2202-4.229   c1.6719-2.0459,2.998-4.6279,3.9419-7.6733c1.7217-5.5562,1.9424-11.8711,1.9424-16.751   C47.6885,22.6704,47.3975,22.269,46.9673,22.1284z">
   </path>
 </g> </svg>